<svg xmlns="http://www.w3.org/2000/svg" width="532.994" height="92.823" viewBox="0 0 532.994 92.823"><g transform="translate(-16.124 -20.284)"><g transform="translate(16.124 20.284)"><path d="M0,0H65.636V65.636Z" transform="translate(46.411 0) rotate(45)" fill="#60d184" fill-rule="evenodd"/></g><path d="M33.048-19.074c-.1,5.916-5.2,10.914-12.036,10.914-4.182,0-6.426-1.836-6.426-5.61,0-4.284,2.448-6.426,10-7.854,4.9-.918,7.242-1.632,8.568-2.958ZM46.41,0V-31.722C46.41-44.37,40.9-51.51,24.99-51.51c-16.116,0-21.828,7.242-22.032,17.646H15.3c.612-4.488,3.06-7.446,9.078-7.446,5.2,0,8.466,1.938,8.466,5.2,0,3.468-1.836,4.794-8.466,5.712C11.016-28.56,1.326-26.928,1.326-12.444c0,8.16,5.3,13.77,16.728,13.77,6.732,0,12.036-2.346,15.2-5.814A19.529,19.529,0,0,0,34.068,0ZM75.99-9.486c-6.63,0-11.322-6.222-11.322-15.2,0-10.3,3.672-15.5,11.424-15.5,7.344,0,11.118,5.406,11.118,16.32C87.21-15.4,82.314-9.486,75.99-9.486ZM99.756,0V-68.544H86.7v24.888c-3.774-5.3-8.67-7.854-14.892-7.854C58.854-51.51,51.2-40.8,51.2-25.6,51.2-8.67,60.282,1.326,72.93,1.326c6.12,0,10.812-2.346,13.974-7.446l.1,6.12Zm19.38,0V-50.184h-13.26V0Zm0-56.2V-68.544h-13.26V-56.2ZM170.646,0V-34.782c0-10.914-7.038-16.728-16.626-16.728-8.058,0-13.158,3.06-16.218,8.67v-7.344H125.154V0h13.26V-28.764c0-7.65,3.366-11.526,10.3-11.526,6.324,0,8.568,2.142,8.568,9.894V0ZM219.4-34.986C218.688-45.8,212.16-51.51,197.676-51.51c-15.3,0-21.114,6.426-21.114,14.892A12.455,12.455,0,0,0,182.886-25.3c3.57,2.244,8.262,3.672,16.728,5.712,4.284,1.02,8.058,2.142,8.058,5.712,0,3.774-4.182,5.2-8.874,5.2-6.426,0-10.4-2.754-10.4-7.446H174.726c.2,10.2,8.772,17.442,24.174,17.442,14.28,0,21.93-6.222,21.93-16.626,0-6.528-2.958-10-8.262-12.138-3.876-1.53-9.282-2.652-14.994-4.284-5.406-1.53-8.16-2.754-8.16-5.712s2.856-4.182,7.854-4.182c6.018,0,8.67,1.734,9.384,6.63Zm37.026,16.83c-.51,5.406-4.59,8.364-9.792,8.364s-9.792-5.3-9.792-16.218,4.59-14.484,10.2-14.484a9.093,9.093,0,0,1,9.486,8.262h13.362c-.816-11.832-9.69-19.278-22.746-19.278-14.076,0-23.46,7.854-23.46,25.806s9.384,27.03,23.052,27.03c12.138,0,21.624-7.854,23.052-19.482Zm29.784-11.832c.51-6.936,4.9-11.016,10.2-11.016,5.2,0,10.1,3.57,10.3,11.016Zm34.17,8.364c0-19.89-8.16-29.886-23.562-29.886s-24.276,10-24.276,25.5c0,18.156,8.364,27.336,25.092,27.336,10.71,0,18.972-5.814,22.032-16.116H306c-.918,3.468-4.692,5.61-8.976,5.61-6.528,0-10.812-4.9-11.22-12.444ZM370.464,0V-34.782c0-10.914-7.038-16.728-16.626-16.728-8.058,0-13.158,3.06-16.218,8.67v-7.344H324.972V0h13.26V-28.764c0-7.65,3.366-11.526,10.3-11.526,6.324,0,8.568,2.142,8.568,9.894V0Zm18.36-29.988c.51-6.936,4.9-11.016,10.2-11.016,5.2,0,10.1,3.57,10.3,11.016Zm34.17,8.364c0-19.89-8.16-29.886-23.562-29.886s-24.276,10-24.276,25.5c0,18.156,8.364,27.336,25.092,27.336,10.71,0,18.972-5.814,22.032-16.116H408.612c-.918,3.468-4.692,5.61-8.976,5.61-6.528,0-10.812-4.9-11.22-12.444Z" transform="translate(126.124 101.291)"/></g></svg>