<?xml version="1.0" encoding="UTF-8"?>
<svg shape-rendering="geometricPrecision" id="katman_2" data-name="katman 2" xmlns="http://www.w3.org/2000/svg" width="477.039" height="92.8233" viewBox="0 0 477.039 92.8233">
  <defs>
    <style>
      .cls-1 {
      fill: #60d184;
      fill-rule: evenodd;
      }
    </style>
  </defs>
  <g>
    <g>
      <g>
        <path class="cls-1" d="M0,0l46.4117,46.4117L0,92.8233V0Z"/>
      </g>
      <path fill="#fff" d="M87.0928,62.897c-.066,3.145-1.6596,6.2123-4.1519,8.176-3.8744,3.5341-14.73,4.5542-14.3086-3.1209-.2783-8.0412,11.723-6.936,17.2936-9.7517.4311-.2321.8272-.5125,1.1734-.83.177-.1852.0704.1991.0857.7808-.0225,1.2704-.0677,3.4721-.0896,4.6601l-.0027.0858ZM100.4514,81.8818c-.0574-8.284.1146-25.5269-.0561-33.9052-.3026-8.4368-4.3839-15.1846-13.6273-16.8916-15.9135-2.9387-29.9061,2.386-29.7457,16.3579-.01.251-.0156.4404.0148.517,1.5291.1737,3.0746.0004,4.9528.06,2.9316.0026,5.438-.0021,7.1826-.0001.1186.0147.1613-.0248.2091-.2634.7451-4.7319,3.6119-7.2789,9.3165-7.1759,3.3714-.1203,8.0401,1.4769,8.1543,4.6843.3886,3.1604-1.7355,4.8378-5.1519,5.6656-11.0137,2.4975-26.4109.7072-26.3293,18.5354.0044,7.9688,5.1348,13.5785,16.1757,13.7399,5.7296.2106,11.8664-1.7499,15.6058-5.5851.1456-.0512.1884.2182.2157.5707.1669,1.2007.3106,2.6147.8043,3.6801.7499.0358,12.2497.0076,12.2692.0141l.0096-.0038ZM129.9658,72.3989c-7.8952-.0295-11.5853-8.6382-11.2489-15.7551-.1253-11.5143,5.946-16.7126,14.9828-14.4363,4.8919,1.5439,7.445,6.6057,7.5525,15.2389.3278,7.1347-3.718,14.8768-11.1482,14.9524h-.1382ZM153.7977,81.8832c-.0075-13.4796.0152-68.8832.0036-68.5318-3.3789.0093-9.623-.0407-13.0426-.0051-.0307.0076-.0044,23.3054-.0131,24.7936-1.1007-1.2928-2.5814-3.1858-4.1056-4.2607-3.5389-2.7689-7.8843-3.7761-12.419-3.4443-12.6465.4355-19.5465,13.8615-18.9716,26.3689.2846,16.5075,8.8221,26.2843,21.7421,26.4055,5.6821.0306,10.5435-2.1443,13.7183-7.0708.432-.7083.1787.2922.2647,1.1472.0546,1.464-.0051,3.3178.1067,4.5914.3882.0198,12.6892.004,12.7072.0079l.0093-.0018ZM173.1772,81.8811c-.0104-4.3788.0161-20.3397.0041-27.6333-.0004-11.4415.001-22.169-.0007-22.5308-2.4004-.0613-6.8428.0098-10.4093-.0164-1.5114.0205-2.4396-.0336-2.8493.0164.0185.7916-.0406,50.5512.0295,50.1665,3.0603.0133,13.0084-.0062,13.2168,0l.0088-.0024ZM173.1801,25.6771c-.0088-3.421.0172-8.7172-.0057-12.3289-3.5827-.0221-7.7707,0-11.3382-.0076-2.4411.1525-1.8395-.7277-1.9148,1.8259.0073,3.2145-.0135,7.2762.0069,10.5106,4.0346.0232,9.3569.0007,13.2461.0062l.0057-.0062ZM224.6871,81.881c.0123-8.1331,0-33.7183.0041-34.7756.0643-10.4962-6.7899-16.6375-16.2022-16.7253-6.4886-.25-13.1381,2.2364-16.3529,8.1582-.0954.1621-.1738.2992-.221.3609-.2135-.9348.0259-6.6741-.0815-7.1767-2.4137-.0699-9.4815.0005-12.6027-.022-.048,1.0184-.0367,45.3027-.0274,50.1776-.3239-.0859,12.7.2083,13.2559-.1048.0059-5.6709-.0043-27.944,0-28.6037-.2399-8.387,4.6829-12.7793,13.3162-11.3442,4.6112.7304,5.5344,4.394,5.5518,9.7097-.0241,1.4208.0174,24.6702,0,30.153.0137.1062-.0335.1724.0305.1963.3887.0033,13.3033.0028,13.3204.0002l.0089-.0035ZM273.4372,46.7494c-.4955-15.7106-17.2605-18.6413-31.9591-15.0993-10.0696,2.8179-13.0936,11.8671-9.4403,19.9034,4.3266,7.4589,13.3134,8.4191,23.4793,11.2128,3.5338.9476,6.3121,2.2891,6.1887,5.4311-.3694,6.5271-14.1096,6.2553-17.6629,1.9802-1.0639-1.1743-1.547-2.6879-1.612-4.2765-.0238-.1691-.0834-.1359-.218-.138-2.8772.0063-12.2048-.0045-13.3505,0-.1114,10.3371,9.0485,17.6095,24.6267,17.4378,10.8447.1814,21.5055-4.909,21.387-16.2293.115-3.0231-.6909-6.591-2.6449-8.7511-1.9497-2.3808-5.3767-3.8604-8.489-4.7731-3.6401-1.1263-8.6538-2.259-13.0372-3.5564-3.7272-.9788-9.1161-3.0774-6.672-7.4064,1.0701-2.0934,6.7761-2.5333,10.0474-2.063,4.0067.4731,5.9633,2.4389,6.576,6.1822.072.3751.1369.2749.3817.2882,1.9155-.0551,11.7651.1179,12.396-.0586l.003-.0841ZM310.4626,63.888c-.5065,5.3538-5.0544,8.4618-10.2235,8.1888-7.4189-.5423-9.6081-10.2805-9.3511-16.8404-.0632-8.5256,3.8496-13.8687,9.7031-13.8341,4.8293-.4448,9.3076,3.007,9.9336,7.822.0702.5736.1291.4014.4827.4277,2.1499-.0118,12.2269.0235,12.8805-.0177-.2346-6.2608-3.2927-11.6329-7.8304-14.9217-3.9707-2.9981-10.0007-4.4751-15.2885-4.336-15.0075-.2081-23.1223,10.4495-23.0395,24.736-.4694,19.9845,10.7051,29.4803,26.0637,27.9324,10.1304-1.0416,18.4942-8.3141,19.9654-18.6905.0291-.1418.0873-.5199.0264-.608-.753.0162-12.6226-.1232-13.3026.0516l-.0196.0897ZM340.2555,51.7659c.2624-13.2403,19.3085-15.5071,20.4808-.3914.0041.0968.0128.2906.0171.3875.0017.2211-.0465.1076-.1383.1356-6.2896-.0365-14.2659.0699-20.3617-.0367l.0021-.0951ZM374.4248,60.0661c.0474-19.1338-8.0161-29.647-23.1424-29.6892-15.6031-.4869-25.183,10.7292-24.693,26.007.1456,17.8148,8.5387,26.8285,25.077,26.8265,3.5366.0158,7.2003-.6848,10.2752-2.0959,5.5332-2.4979,9.9564-7.4641,11.709-14.0018-.6-.0405-9.6999-.0058-12.6557-.0174-.6797.0541-.8884-.1667-1.0173.2347-2.0892,6.369-12.2493,6.7837-16.1666,2.638-2.213-2.024-4.0038-5.9813-3.8681-9.7072,1.8687-.077,33.8511.1513,34.4788-.0844l.003-.1102ZM424.5051,81.881c.0123-8.1331,0-33.7183.0041-34.7756.0643-10.4962-6.7899-16.6375-16.2022-16.7253-6.4886-.25-13.1381,2.2364-16.3528,8.1582-.0954.1621-.1738.2992-.221.3609-.2135-.9348.0259-6.6741-.0815-7.1767-2.4137-.0699-9.4815.0005-12.6027-.022-.048,1.0184-.0367,45.3027-.0274,50.1776-.3239-.0859,12.7.2083,13.2559-.1048.0059-5.6709-.0043-27.944,0-28.6037-.2399-8.387,4.6829-12.7793,13.3161-11.3442,4.6112.7304,5.5344,4.394,5.5518,9.7097-.0241,1.4208.0174,24.6702,0,30.153.0137.1062-.0335.1724.0305.1963.3887.0033,13.3033.0028,13.3204.0002l.0089-.0035ZM442.8695,51.7659c.2624-13.2403,19.3085-15.5071,20.4808-.3914.0041.0968.0128.2906.0171.3875.0017.2211-.0465.1076-.1383.1356-6.2896-.0365-14.2659.0699-20.3617-.0367l.0021-.0951ZM477.0388,60.0661c.0474-19.1338-8.0161-29.647-23.1424-29.6892-15.6031-.4869-25.183,10.7292-24.693,26.007.1456,17.8148,8.5387,26.8285,25.077,26.8265,3.5366.0158,7.2003-.6848,10.2752-2.0959,5.5331-2.4979,9.9564-7.4641,11.709-14.0018-.6001-.0405-9.7012-.0058-12.6575-.0174-.6798.0541-.8885-.1667-1.0174.2347-2.0892,6.369-12.2493,6.7837-16.1666,2.638-2.213-2.024-4.0038-5.9813-3.868-9.7072,1.8688-.077,33.853.1513,34.4808-.0844l.003-.1102Z"/>
    </g>
  </g>
</svg>
