<svg version="1.1" id="Layer_1" xmlns:x="ns_extend;" xmlns:i="ns_ai;" xmlns:graph="ns_graphs;" xmlns="http://www.w3.org/2000/svg" xmlns:xlink="http://www.w3.org/1999/xlink" x="0px" y="0px" viewBox="0 0 199.4 83" style="enable-background:new 0 0 199.4 83;" xml:space="preserve">
 <style type="text/css">
  .st0{fill:#EC0041;}
 </style>
  <metadata>
  <sfw xmlns="ns_sfw;">
   <slices>
   </slices>
    <sliceSourceBounds bottomLeftOrigin="true" height="83" width="199.4" x="100.5" y="-241.7">
   </sliceSourceBounds>
  </sfw>
 </metadata>
  <g>
  <path
    fill="#fff"
    d="M96.5,19.7h9v28.1c0,11-5.1,15.7-14.3,15.7c-3.2,0-6.4-0.8-9.1-2.4v-8.9c2.4,1.9,5.3,3,8.4,3.1c4.5,0,6-2.6,6-8.5
		C96.5,46.6,96.5,19.7,96.5,19.7z M147.5,48.7l-7.4-29.1H133l-7.6,29.1l-7-29.1h-9.2l11.3,43.3h8.3l7.6-28.6l7.6,28.6h8.2l11.3-43.3
		h-9L147.5,48.7z M166.2,62.8h9.3V46.7h8.3c8.5,0,15.6-4.3,15.6-13.7c0-8.2-6.2-13.3-15.4-13.3h-17.8V62.8z M175.5,27.1h7.3
		c4,0,7.2,1.7,7.2,6.1s-3.1,6.1-7.4,6.1h-7.1L175.5,27.1L175.5,27.1z">
  </path>
    <path class="st0" d="M78.3,0.3c-1.4-0.7-3.1,0-3.7,1.4c-0.7,1.4-18,43.3-18,43.3c-0.6,1.3-0.9,1.2-0.9-0.2c0,0,0.1-14.6,0.1-26.6
		c0.1-6.6-3.2-10.2-7.7-11c-2.1-0.3-4.2,0.2-6,1.3c-1.8,1.3-3.3,3-4.2,5c-1.4,2.7-9.8,27.4-9.8,27.4c-0.4,1.3-0.9,1.2-0.9-0.1
		c0,0-0.2-10.7-0.5-13.1c-0.4-3.9-1.2-10.2-6.2-10.5c-4.7-0.3-6.8,5.5-8,9c-0.8,2.4-4.7,15.1-4.7,15.1l-0.6,1.3l0,0
		c-0.2,0.7-0.5,0.7-0.7,0l-0.3-1.2c-0.3-1.3-0.7-2.5-1.2-3.7c-0.2-0.7-0.5-1.3-0.9-1.9c-0.6-0.7-1.6-0.9-2.5-0.6
		c-0.8,0.3-1.4,1-1.5,1.9c0,0.7,0.1,1.5,0.2,2.2c0.3,2.2,1.9,11.1,2.9,13c1,1.9,3.1,2.9,5.1,1.9c1.9-1,2.8-3.3,3.5-5.1
		c0.9-2.3,5.7-15.5,5.7-15.5c0.5-1.3,0.9-1.2,0.8,0.1c0,0-0.2,13-0.2,18.8c0,2.2,0.2,6.2,0.8,8.3c0.3,1.4,1.2,2.7,2.3,3.6
		c1.1,0.9,2.6,1.2,4,1.1c0.7-0.1,1.4-0.3,2-0.7c0.9-0.5,1.6-1.2,2.2-2c1.4-1.9,2.6-3.9,3.6-6c2.3-4.5,8.3-18.6,8.3-18.6
		c0.6-1.3,0.9-1.2,0.9,0.2c0,0-0.7,23.7-0.7,32.7c0,2.2,0.4,4.5,1.2,6.6c0.7,2,2.2,3.6,4.1,4.5c2.1,0.9,4.5,0.8,6.5-0.4
		c1.5-0.9,2.8-2.2,3.6-3.7c1.2-2.1,2.2-4.3,3.1-6.6c1.8-4.7,3.3-9.4,4.8-14.2c1.5-4.8,14.1-50,15-53.8c0.1-0.4,0.2-0.9,0.1-1.3
		c-0.1-0.9-0.7-1.7-1.5-2.1L78.3,0.3z">
  </path>
 </g>
</svg>
