<?xml version="1.0" encoding="UTF-8"?>
<svg width="179px" height="28px" viewBox="0 0 179 28" version="1.1" xmlns="http://www.w3.org/2000/svg" xmlns:xlink="http://www.w3.org/1999/xlink">
  <!-- Generator: Sketch 43.2 (39069) - http://www.bohemiancoding.com/sketch -->
  <defs>
    <polygon id="path-1" points="5.42101086e-20 0.3278 5.42101086e-20 27.9898 20.1776 27.9898 20.1776 0.3278 0 0.3278"></polygon>
    <polygon id="path-3" points="1 28 178.768 28 178.768 0.318 1 0.318"></polygon>
  </defs>
  <g id="Pages" stroke="none" stroke-width="1" fill="none" fill-rule="evenodd">
    <g id="Homepage" transform="translate(-170.000000, -9661.000000)">
      <g id="FOOTER" transform="translate(170.000000, 9660.000000)">
        <g id="Page-1">
          <polygon id="Fill-1" fill="#fff" points="65.9033 5.1519 65.9033 7.6779 59.9913 7.6779 59.9913 24.5299 56.9813 24.5299 56.9813 7.6779 51.0703 7.6779 51.0703 5.1519"></polygon>
          <polygon id="Fill-2" fill="#fff" points="66.5908 24.5298 66.5908 5.1518 69.5738 5.1518 69.5738 13.4568 80.4318 13.4568 80.4318 5.1518 83.4148 5.1518 83.4148 24.5298 80.4318 24.5298 80.4318 15.9828 69.5738 15.9828 69.5738 24.5298"></polygon>
          <polyline id="Fill-3" fill="#fff" points="99.0889 5.1519 99.0889 7.6779 89.1979 7.6779 89.1979 13.4559 98.6309 13.4559 98.6309 15.9819 89.1979 15.9819 89.1979 22.0299 99.3029 22.0299 99.3029 24.5289 86.2129 24.5289 86.2129 5.1499 99.0869 5.1499"></polyline>
          <g id="Group-22" transform="translate(0.000000, 0.682100)">
            <path d="M101.0127,14.1993 C101.0127,7.6233 104.2557,4.3363 110.7417,4.3363 C117.1387,4.3363 120.3357,7.6233 120.3357,14.1993 C120.3357,20.7213 117.1387,23.9823 110.7417,23.9823 C104.2557,23.9823 101.0127,20.7213 101.0127,14.1993 Z M110.7417,21.4833 C115.0607,21.4833 117.2187,19.0283 117.2187,14.1183 C117.2187,9.2803 115.0607,6.8623 110.7417,6.8623 C106.3337,6.8623 104.1317,9.2823 104.1317,14.1183 C104.1307,19.0283 106.3337,21.4833 110.7417,21.4833 Z" id="Fill-4" fill="#fff"></path>
            <g id="Group-8">
              <mask id="mask-2" fill="white">
                <use xlink:href="#path-1"></use>
              </mask>
              <g id="Clip-7"></g>
              <path d="M9.1596,14.1348 C9.1596,17.9928 10.5166,21.2878 13.2276,24.0158 C14.4686,25.2238 15.7386,26.1538 17.0406,26.8048 C17.9696,27.2688 18.9616,27.6028 20.0156,27.8048 L20.0156,27.9898 L5.7656,27.9898 C1.9206,27.9898 -0.0004,26.0678 -0.0004,22.2248 L-0.0004,6.1148 C-0.0004,2.2578 1.9206,0.3278 5.7656,0.3278 L20.1776,0.3278 L20.1776,0.4898 C19.0636,0.7078 18.0096,1.0548 17.0166,1.5358 C15.7326,2.1738 14.4686,3.0928 13.2276,4.3018 C10.5146,7.0148 9.1596,10.2928 9.1596,14.1348 Z" id="Fill-6" fill="#FFC50F" mask="url(#mask-2)"></path>
            </g>
            <path d="M32.6377,15.5752 C30.9617,16.7692 28.7957,18.1032 26.1427,19.5762 C23.5827,21.0142 21.3397,22.1432 19.4107,22.9642 L17.2747,23.7592 C17.1397,23.1812 17.0147,22.3262 16.8977,21.1922 C16.6317,18.9332 16.4987,16.4402 16.4987,13.7122 C16.4987,11.2142 16.6797,8.8802 17.0397,6.7082 L17.5627,4.2122 L19.8287,4.9742 C21.7917,5.7562 23.9217,6.8662 26.2137,8.3042 C28.6417,9.8242 30.7247,11.2712 32.4617,12.6432 C33.3307,13.3342 33.9557,13.8662 34.3377,14.2402 L32.6377,15.5752" id="Fill-9" fill="#fff"></path>
            <g id="Group-13"  transform="translate(27.000000, 0.000000)" fill="#FFC50F">
              <path d="M21.2481,22.2309 C21.2481,26.0759 19.3251,27.9999 15.4791,27.9999 L0.9401,27.9999 L0.9401,27.8129 C3.6081,27.3009 5.9411,26.0379 7.9411,24.0209 C10.6561,21.2909 12.0121,17.9959 12.0121,14.1349 C12.0121,10.2899 10.6561,7.0099 7.9411,4.2959 C5.9111,2.2629 3.5361,0.9999 0.8231,0.5039 L0.8231,0.3179 L15.4791,0.3179 C19.3261,0.3179 21.2481,2.2499 21.2481,6.1099 L21.2481,22.2309 Z" id="Fill-11"></path>
            </g>
            <path d="M123.4942,8.9361 C125.0732,8.6101 126.6422,8.4481 128.1962,8.4481 C131.8412,8.4481 133.6632,10.2491 133.6632,13.8511 C133.6632,17.8071 131.8332,19.7851 128.1752,19.7851 C127.2702,19.7851 126.4932,19.6151 125.8452,19.2761 L125.8452,23.7261 L123.4932,23.7261 L123.4932,8.9361 M125.8462,17.2211 C126.4942,17.5451 127.2652,17.7081 128.1542,17.7081 C130.2732,17.7081 131.3342,16.4161 131.3342,13.8311 C131.3342,11.5991 130.2812,10.4821 128.1762,10.4821 C127.2292,10.4821 126.4532,10.5521 125.8462,10.6941 L125.8462,17.2211" id="Fill-14" fill="#A3A6AA"></path>
            <mask id="mask-4" fill="white">
              <use xlink:href="#path-3"></use>
            </mask>
            <g id="Clip-17"></g>
            <polygon id="Fill-16" fill="#A3A6AA" mask="url(#mask-4)" points="135.459 19.785 137.811 19.785 137.811 4.508 135.459 4.508"></polygon>
            <path d="M144.1211,14.5938 C142.5961,14.5938 141.8321,15.1098 141.8321,16.1398 C141.8321,17.2578 142.4811,17.8148 143.7831,17.8148 C145.0651,17.8148 146.0571,17.5588 146.7481,17.0528 L146.7481,14.7638 C146.1131,14.6498 145.2361,14.5938 144.1211,14.5938 M139.4801,16.1828 C139.4801,13.7958 141.0271,12.6018 144.1211,12.6018 C145.2081,12.6018 146.0841,12.6728 146.7481,12.8138 L146.7481,12.0078 C146.7481,10.9638 145.8371,10.4398 144.0161,10.4398 C142.9281,10.4398 141.7051,10.6098 140.3491,10.9478 L140.3491,9.0198 C141.6471,8.6378 142.8701,8.4478 144.0161,8.4478 C147.4061,8.4478 149.1011,9.6838 149.1011,12.1558 L149.1011,19.7838 L147.8091,19.7838 L147.0881,19.0208 C146.2111,19.5298 145.1091,19.7838 143.7831,19.7838 C140.9141,19.7848 139.4801,18.5848 139.4801,16.1828" id="Fill-18" fill="#A3A6AA" mask="url(#mask-4)"></path>
            <path d="M150.0869,8.4483 L152.5439,8.4483 L155.4909,16.9663 L158.5209,8.4483 L160.9159,8.4483 L156.1489,20.1023 C155.4709,22.0523 154.2339,23.2883 152.4399,23.8113 L151.6129,22.1363 C152.8579,21.5583 153.7399,20.7253 154.2619,19.6363 L150.0869,8.4483" id="Fill-19" fill="#A3A6AA" mask="url(#mask-4)"></path>
            <path d="M163.7207,12.856 L168.8927,12.856 C168.9767,11.23 168.1777,10.419 166.4947,10.419 C164.7597,10.419 163.8337,11.232 163.7207,12.856 M171.0327,14.89 L163.7207,14.89 C163.7207,16.839 165.0567,17.814 167.7257,17.814 C168.6727,17.814 169.7027,17.708 170.8207,17.496 L170.8207,19.445 C169.7327,19.671 168.4877,19.785 167.0887,19.785 C163.2747,19.785 161.3677,17.856 161.3677,14 C161.3677,10.298 163.1767,8.448 166.7917,8.448 C170.2827,8.448 171.6957,10.596 171.0327,14.89" id="Fill-20" fill="#A3A6AA" mask="url(#mask-4)"></path>
            <path d="M173.2383,8.4487 L174.9313,8.4487 L175.2283,9.8467 C176.0333,8.9147 177.2153,8.4487 178.7673,8.4487 L178.7673,10.4827 C177.3843,10.4827 176.3243,10.8997 175.5903,11.7317 L175.5903,19.7847 L173.2383,19.7847 L173.2383,8.4487 Z" id="Fill-21" fill="#A3A6AA" mask="url(#mask-4)"></path>
          </g>
        </g>
      </g>
    </g>
  </g>
</svg>
