<?xml version="1.0" encoding="UTF-8"?>
<svg id="katman_2" data-name="katman 2" xmlns="http://www.w3.org/2000/svg" width="143.8407mm" height="46.1534mm" viewBox="0 0 407.7375 130.8286">
  <defs>
    <style>
      .cls-1 {
      fill: #fff;
      }

      .cls-2 {
      fill: #f32735;
      }
    </style>
  </defs>
  <g id="Layer_1" data-name="Layer 1">
    <g>
      <path class="cls-1" d="M372.9067,100.7964c-18.5156,0-32.543-12.1485-34.5137-14.584l12.1084-13.0098c4.8926,3.7032,11.3907,7.4746,20.6368,9.0039,7.3359,1.212,12.7002-.5634,14.1377-2.6982,1.2138-1.8076,1.291-4.0801-.8926-5.8271-2.1416-1.7129-5.9102-3.0733-12.1055-4.5166l-.7051-.1651c-11.8984-2.7978-29.4941-8.1763-29.4941-25.0625,0-10.5019,7.3027-18.7519,20.0342-22.6299,11.58-3.5332,31.1797-.249,41.9511,7.022l-10.6748,15.728c-7.8125-5.7641-21.5937-7.3159-25.8281-4.7851-2.4297,1.4511-2.7109,4.789-.2861,6.4511,5.0654,3.4659,29.6465,8.625,36.3115,17.5679,5.6455,7.5737,5.5215,16.6392-.3037,24.5093-5.8408,7.8935-17.4902,12.9961-30.376,12.9961"/>
      <path class="cls-1" d="M29.1269,22.0273H0v76.6929h29.1269c23.001,0,39.0674-15.6484,39.0674-38.0566v-.2891c0-22.5781-16.0664-38.3472-39.0674-38.3472M49.6553,60.6636c0,12.039-7.8653,19.5176-20.5284,19.5176h-10.5888v-39.6148h10.5888c12.6631,0,20.5284,7.5913,20.5284,19.8081v.2891Z"/>
      <path class="cls-1" d="M380.7876,116.0005c0-4.2637-3.458-7.7217-7.7217-7.7217s-7.7227,3.458-7.7227,7.7217,3.458,7.7217,7.7227,7.7217,7.7217-3.4571,7.7217-7.7217"/>
      <path class="cls-1" d="M214.0903,53.6528v14.7432h13.167c-3.1475,7.5107-10.5713,12.8037-19.2148,12.8037-11.4815,0-20.8218-9.3398-20.8218-20.8208s9.3403-20.8203,20.8218-20.8203c5.8701,0,11.499,2.4961,15.4433,6.852l14.5723-13.1977c-7.666-8.459-18.6045-13.313-30.0156-13.313-22.3208,0-40.4786,18.1567-40.4786,40.479s18.1578,40.4771,40.4786,40.4771,40.4814-18.1553,40.4814-40.4771l.001-6.7261h-34.4346Z"/>
      <rect class="cls-1" x="196.4575" width="23.3701" height="12.4834"/>
      <path class="cls-1" d="M331.9096,22.0732h-19.6318l.0029,39.5039.0147.4722c0,10.2432-7.4932,19.1817-17.7373,19.1817s-17.2412-8.9385-17.2412-19.1817V22.0732h-19.6309v39.9761c0,21.0684,15.6084,38.8115,36.6777,38.8115s37.5616-17.7431,37.5616-38.8115c0-.251-.0069-.5029-.0157-.6811V22.0732Z"/>
    </g>
    <g>
      <path class="cls-2" d="M129.8677,97.7153c-.2071-2.4716-1.0933-5.1748-2.4312-7.417-.7988-1.3349-2.98-4.5302-6.0029-5.3525-1.0679-.291-2.293-.3594-3.5479-.251-.5171.0449-1.0713.1201-1.6924.2276-2.144.372-4.581.9199-6.3569,2.6982-1.6577,1.6602-3.8428,6.2432-3.8198,12.7315,1.2749.3632,2.5639.6679,3.8637.9082-.1806-6.9122,1.877-10.0411,2.7183-10.8799.9688-.9717,2.6387-1.3291,4.2647-1.6123.5112-.0899.956-.1494,1.3613-.1846.79-.0674,1.5708-.0391,2.1841.1279,1.0937.2979,2.5727,1.7403,3.6758,3.5889,1.0288,1.7226,1.7368,3.8682,1.892,5.7402.0552.6592-.083,1.417-.229,2.2198-.0542.2998-.1098.6084-.1591.9257,1.393-.2734,2.7739-.6211,4.1401-1.0361.1221-.7578.2109-1.5742.1392-2.4346"/>
      <path class="cls-2" d="M138.3178,89.7095c-1.1372-4.0401-3.5473-7.7588-6.7851-10.4707-1.103-.9219-2.249-1.5537-3.3579-2.1651-.6084-.3359-1.1841-.6523-1.7363-1.0068-1.961-1.2637-3.9751-1.4346-5.6851-1.4346-.5449,0-1.0996.0205-1.668.0401-2.1137.0752-4.5097.1611-6.8398.8242-1.853.5293-3.5869,1.3994-5.2632,2.2392l-.7056.3506c-1.0903.542-2.3252,1.1543-3.3994,2.1114-.6479.5781-1.1709,1.2236-1.5957,1.7802-2.6543,3.4649-4.2461,8.9639-4.5171,14.4629,1.2432.7158,2.5191,1.3555,3.8169,1.9326.0581-2.4687.0742-4.7021.437-6.4023.7583-3.5566,1.1382-4.7168,3.3618-7.6191.3145-.4122.6905-.8809,1.0943-1.2413.6811-.6064,1.624-1.0742,2.5361-1.5254l.7207-.3603c1.5161-.7598,3.083-1.5449,4.584-1.9736,1.8731-.5332,3.9253-.6065,5.9102-.6778.52-.0175,1.0288-.0371,1.5278-.0371,1.3872,0,2.5264.1387,3.5723.8125.665.4278,1.3261.792,1.9648,1.1446.9902.5439,1.9243,1.0595,2.7363,1.7382,2.6416,2.2119,4.607,5.2442,5.5327,8.5362.4283,1.5146.6441,3.0908.6441,4.6806v2.6123c1.3281-.6181,2.6299-1.3134,3.9038-2.0781v-.5342c0-1.9482-.2656-3.8799-.7896-5.7392"/>
      <path class="cls-2" d="M137.2441,74.6714c-2.9219-3.0029-6.1396-5.2012-9.5639-6.5352-2.898-1.1269-6.1138-1.6982-9.5601-1.6982h-.1567c-.2403,0-.479.0049-.7203.0107-2.4609.0703-4.6206.4121-6.6001,1.0459-2.7949.8965-5.2436,2.3867-7.6147,3.8262-1.501.9131-3.2022,1.9482-4.5981,3.3877-1.2247,1.2627-2.1309,2.7568-2.855,4.0498-1.0518,1.874-1.8858,3.6221-2.5528,5.3408-1.021,2.6416-1.7661,5.4258-2.208,8.1612.9937.8369,2.0171,1.622,3.0689,2.3515.3471-2.501,1.4082-6.4658,2.5971-9.54.5987-1.5449,1.2876-3.043,2.25-4.7559.6319-1.1289,1.4048-2.1152,2.313-3.0527,1.0489-1.0811,2.6499-1.7764,4.0137-2.6074,2.1753-1.3204,4.4243-2.6885,6.7774-3.4414,1.625-.5225,3.4296-.8047,5.5166-.8633.2124-.0049.4252-.0088.6362-.0098h.1328c2.9604,0,5.7002.4815,8.1431,1.4336,2.9013,1.1279,5.6543,3.0195,8.1831,5.6191,3.8051,3.9082,6.2392,8.6416,6.8549,13.3311.1583,1.2041.2862,1.6904.4361,3.5312,1.2212-.8632,2.4082-1.7978,3.5542-2.8076-.0332-.4091-.0664-.8183-.1201-1.2314-.7242-5.5176-3.5401-11.0391-7.9273-15.5459"/>
      <path class="cls-2" d="M144.8305,66.1646c-2.6958-2.5474-6.4697-4.0596-9.7988-5.3956-.75-.2988-1.4839-.5927-2.185-.8911l-3.7261-1.584c-2.19-.9296-4.4551-1.8906-6.9141-2.4067-1.3369-.2812-2.7168-.48-4.1006-.5913-6.0454-.4829-10.7104.2573-14.5732,2.27-7.1152,3.708-12.1172,8.4522-15.479,13.7246-.9448,1.4824-3.669,6.0908-5.4038,11.7119,0,0,1.7519,2.5645,2.7539,3.7862,1.959-6.6446,5.0991-11.9532,6.02-13.5283,2.7788-4.754,7.4609-8.8692,13.9131-12.232,3.1919-1.6631,7.188-2.2612,12.457-1.8403,1.2197.0972,2.4346.272,3.6109.519,2.0849.438,4.08,1.2842,6.1909,2.1812l3.7241,1.582c.7251.3081,1.4849.6138,2.2588.9238,3.1543,1.2637,6.4141,2.5713,8.5713,4.6084,2.7768,2.6231,5.0117,5.962,6.2949,9.4024.8638,2.3183,1.5249,4.8486,1.9961,7.6426,1.1279-1.4131,2.1519-2.8828,3.0718-4.4014-.399-1.6113-.8662-3.1436-1.4102-4.6035-1.4858-3.9903-4.0688-7.8535-7.272-10.8779"/>
      <path class="cls-2" d="M145.8945,52.6465c-2.0552-1.231-4.248-2.2569-6.1421-3.1211-3.7099-1.6929-8.0532-3.5781-12.6401-4.5191-2.6987-.5527-5.5977-.8217-9.1201-.8447l-.523-.0029-.666.0029c-8.0137.063-16.0186,2.253-23.147,6.334-1.084.6211-1.9287,1.3359-2.7426,2.0269-.5284.4482-1.0274.8711-1.5674,1.2461-1.8716,1.2978-3.4239,2.436-4.9209,3.7597-3.2539,2.8784-5.8428,6.0904-7.6968,9.5445-.041.0781-.0781.1552-.1191.2324.3388,2.0615.832,4.1015,1.4819,6.1035.0439-.1016.0879-.2031.1313-.3037.6348-1.4688,1.2339-2.8555,1.9478-4.1875,1.6318-3.0459,3.9331-5.8931,6.8408-8.4649,1.355-1.1982,2.8032-2.2573,4.561-3.477.6954-.4829,1.2901-.9873,1.8643-1.4741.7139-.604,1.3857-1.1748,2.1587-1.6182,6.5483-3.749,13.8921-5.7598,21.2383-5.8179l.6357-.0029.4942.0029c3.2631.021,5.9218.2652,8.3652.7652,4.186.8589,8.2876,2.643,11.8017,4.2461,1.8809.8588,3.875,1.791,5.7569,2.9179,5.8364,3.4981,10.4844,8.8819,13.0903,15.1641.1299.3144.2549.6309.3819.9473.0742.1894.1508.3818.229.5732.6489-2.0342,1.143-4.1045,1.4751-6.1982-3.0513-5.6783-7.6309-10.5166-13.169-13.8345"/>
      <path class="cls-2" d="M152.9868,47.7661c-4.0298-3.2671-8.5757-5.477-13.1157-7.208-2.8423-1.083-6.3799-1.8452-9.5733-2.6728-4.143-1.0752-7.9697-1.9991-12.2988-2.045l-.5889-.0044c-3.6401,0-7.351.8301-10.8989,1.5611-8.019,1.6562-15.3984,5.0493-22.0181,10.247-2.831,2.2222-8.123,7.7901-8.1601,8.1133-.2232,1.938-.3091,3.8887-.2598,5.8369,2.9307-4.1469,6.4649-7.9101,10.5396-11.1079,6.1484-4.8281,13.3252-8.1904,20.7553-9.7241,3.2881-.6782,6.667-1.022,10.042-1.022l.5469.003c4.0132.0439,7.9932.5698,11.8281,1.5659,3.0108.7812,5.959,1.854,8.6949,2.897,4.247,1.6191,8.6919,3.4409,12.2739,6.3461,3.5351,2.8648,6.3071,5.8047,8.8052,10.587.0629-2.1431-.0352-4.2881-.3003-6.418-.0376-.3101-3.9917-5.106-6.272-6.9551"/>
      <path class="cls-2" d="M137.9311,32.4131c-2.165-.6631-4.4477-1.0791-6.2798-1.4141-4.5551-.833-9.0239-1.5981-13.603-1.813-2.3061-.1089-4.4912-.0639-6.542.1309-7.3569.7002-14.1972,3.3989-20.8091,6.0102-3.9931,1.5757-7.2788,4.0767-10.3471,6.733-1.2759,2.6001-2.2749,5.3037-2.9829,8.0698,2.727-3.6348,10.1699-9.3477,14.5781-11.377,6.1489-2.83,13.124-4.9018,19.9311-5.5498,1.8677-.1772,3.8677-.2173,5.9888-.1172,4.3379.2032,8.6641.9449,13.084,1.753,2.2051.4033,4.0352.7539,5.8403,1.3071,1.771.543,7.334,2.9131,9.5308,4.0239,5.938,3,9.602,6.3179,11.7349,8.5449-.608-2.1796-1.397-4.3208-2.3711-6.4008-3.4698-2.7442-7.2549-5.1768-11.316-7.23-2.4008-1.2129-4.4467-2.062-6.437-2.6709"/>
      <path class="cls-2" d="M123.1831,18.8071c-5.728-.6958-11.5889-.2168-17.1909,1.4722-5.7911,1.7471-11.3042,4.7759-16.0943,9.1128-1.164,1.0542-2.247,2.1631-3.2656,3.311-.0444.0503-.0254.0899.0278.0601.8721-.4932,1.751-1.0332,2.6499-1.603,3.9502-2.5049,11.419-5.6099,15.712-6.7129,4.3671-1.1221,7.1982-1.8809,13.0292-1.8809.7378,0,1.4717-.0361,2.2129-.022,2.583.0498,5.314.3858,8.3482,1.0279,6.7368,1.4248,13.186,3.979,19.2158,7.584.125.0751.1611.0019.0532-.1089-6.8213-7.0274-15.584-11.1324-24.6982-12.2403"/>
    </g>
    <g>
      <path class="cls-2" d="M45.166,115.8101h2.5405l4.979,11.0849,5.0401-11.0849h2.2949l1.5366,14.7519h-3.0322l-.9224-8.9121-4.0771,8.9121h-2.1104l-4.0361-8.831-.8809,8.831h-2.8686l1.5366-14.7519Z"/>
      <path class="cls-2" d="M64.0976,115.8101h8.8921v2.6435h-5.8393v3.2568h4.8764v2.5616h-4.8764v3.6474h5.8393v2.6426h-8.8921v-14.7519Z"/>
      <path class="cls-2" d="M75.6943,115.8101h4.7739c1.4068,0,2.6255.1914,3.6573.5742,1.0307.3818,1.8847.9082,2.561,1.5771.6758.6699,1.1743,1.4551,1.4956,2.3565.3208.9013.4815,1.8711.4815,2.9092,0,1.0517-.1709,2.0253-.5123,2.9199-.3418.8945-.8471,1.6699-1.5161,2.3252-.6694.6552-1.5058,1.1679-2.5097,1.5371-1.0039.3681-2.169.5527-3.4937.5527h-4.9375v-14.7519ZM78.747,118.5151v9.3428h1.7007c1.6797,0,2.9468-.4209,3.8003-1.2607.8535-.8399,1.2808-1.9629,1.2808-3.3701,0-.71-.1162-1.3555-.3482-1.9366-.2324-.5801-.5634-1.0752-.9936-1.4853-.4307-.4092-.9566-.7276-1.5776-.9522-.6221-.2256-1.3287-.3379-2.1207-.3379h-1.7417Z"/>
      <path class="cls-2" d="M91.2651,115.8101h3.0527v14.7519h-3.0527v-14.7519Z"/>
      <path class="cls-2" d="M102.7998,115.8101h2.5405l6.3311,14.7519h-3.4219l-1.2495-3.0937h-6.065l-1.229,3.0937h-3.2168l6.3106-14.7519ZM101.8369,125.1733h4.2612l-2.1303-5.3271-2.1309,5.3271Z"/>
      <path class="cls-2" d="M125.9927,122.0796h6.6792c.0546.2324.0922.4853.1127.7578.0206.2734.0308.5264.0308.7588,0,1.0654-.1709,2.042-.5122,2.9297-.3418.8877-.8193,1.6494-1.4341,2.2842-.6147.6357-1.3491,1.1269-2.2026,1.4755-.854.3477-1.793.5225-2.8174.5225-1.0928,0-2.1001-.1816-3.022-.543-.9218-.3623-1.7177-.874-2.3867-1.5371-.6694-.6621-1.1919-1.4648-1.5674-2.4072-.376-.9424-.5635-1.9873-.5635-3.1348,0-1.1338.1875-2.1679.5635-3.1035.3755-.9355.9014-1.7422,1.5777-2.4179.6757-.6768,1.4819-1.1993,2.4174-1.5674.9356-.3692,1.9634-.5537,3.0835-.5537,2.2261,0,3.9956.663,5.3067,1.9873l-1.7622,2.1923c-.4644-.4502-.9868-.8056-1.5674-1.0654-.5806-.2588-1.2261-.3887-1.936-.3887-.6695,0-1.2842.1163-1.8438.3477-.5605.2324-1.042.5635-1.4448.9941-.4029.4307-.7168.9463-.9424,1.5469-.2251.6016-.3379,1.2705-.3379,2.0078,0,.7657.1128,1.4483.3379,2.0489.2256.6015.5395,1.1171.9424,1.5468.4028.4307.8843.7578,1.4448.9834.5596.2256,1.1675.3379,1.8232.3379.5328,0,1.0313-.0849,1.4957-.2558.4643-.1709.8671-.4131,1.2089-.7276.3413-.3135.6114-.6963.8091-1.1474.1983-.4502.3106-.9629.3384-1.5362h-3.8315v-2.3359Z"/>
      <path class="cls-2" d="M135.3149,115.8101h4.6714c.874,0,1.6729.0957,2.397.2871s1.3452.4785,1.8647.8603c.5186.3828.9219.8643,1.2085,1.4444.2871.581.4307,1.2597.4307,2.039,0,1.1475-.2666,2.083-.7993,2.8067-.5327.7246-1.2637,1.2636-2.1924,1.6181l3.9751,5.6963h-3.5449l-3.4419-5.2041h-1.5161v5.2041h-3.0528v-14.7519ZM138.3677,118.2896v4.6914h1.311c.9697,0,1.728-.2012,2.2744-.6045.5464-.4024.8198-1.0205.8198-1.8536,0-.7509-.27-1.3115-.8095-1.6806-.5396-.3682-1.2803-.5527-2.2232-.5527h-1.3725Z"/>
      <path class="cls-2" d="M155.6186,130.8286c-1.1338,0-2.1718-.1846-3.1142-.5537-.9424-.3682-1.7554-.8877-2.438-1.5566-.6831-.669-1.2158-1.4717-1.5982-2.4073-.3828-.9355-.5737-1.9775-.5737-3.125,0-1.1338.1875-2.1679.5635-3.1035.3755-.9355.9048-1.7422,1.5879-2.4179.6826-.6768,1.4956-1.1993,2.438-1.5674.9423-.3692,1.9804-.5537,3.1142-.5537s2.1719.1845,3.1143.5537c.9424.3681,1.7554.8906,2.4385,1.5674.6826.6757,1.2153,1.4824,1.5981,2.4179.3818.9356.5732,1.9697.5732,3.1035,0,1.1475-.1875,2.1895-.5629,3.125-.376.9356-.9053,1.7383-1.5879,2.4073-.6836.6689-1.4961,1.1884-2.4385,1.5566-.9424.3691-1.9805.5537-3.1143.5537ZM155.5776,128.103c.6694,0,1.2876-.1152,1.8545-.3476.5664-.2325,1.0552-.5606,1.4649-.9834.4096-.4239.7304-.9356.9628-1.5371.232-.6006.3482-1.2705.3482-2.0078,0-.751-.1162-1.4346-.3482-2.0489-.2324-.6142-.5532-1.1367-.9628-1.5674-.4097-.4306-.8985-.7617-1.4649-.9941-.5669-.2314-1.1851-.3477-1.8545-.3477-.6553,0-1.2637.1163-1.8232.3477-.5606.2324-1.0449.5635-1.4546.9941-.4102.4307-.7276.9532-.9531,1.5674-.2251.6143-.3379,1.2979-.3379,2.0489,0,.7373.1157,1.4072.3481,2.0078.2324.6015.5498,1.1132.9531,1.5371.4024.4228.8838.7509,1.4444.9834.5595.2324,1.1679.3476,1.8232.3476Z"/>
      <path class="cls-2" d="M165.8218,115.8101h3.0527v8.3388c0,1.3252.249,2.336.748,3.0323.4986.6972,1.2598,1.0449,2.2842,1.0449s1.7896-.3477,2.2949-1.0449c.5054-.6963.7579-1.7139.7579-3.0528v-8.3183h3.0737v8.3183c0,2.1582-.5225,3.8145-1.5674,4.9688-1.0449,1.1543-2.5649,1.7314-4.5591,1.7314-2.0762,0-3.6094-.5664-4.5996-1.7012-.9902-1.1328-1.4853-2.7998-1.4853-4.999v-8.3183Z"/>
      <path class="cls-2" d="M181.1474,115.8101h4.6714c.874,0,1.6729.0996,2.397.2968.7241.1983,1.3452.4952,1.8647.8916.5186.3965.9219.8985,1.2085,1.5059.2871.6084.4307,1.3213.4307,2.1406,0,.875-.1509,1.6328-.4512,2.2744-.3003.6426-.7168,1.1748-1.2495,1.5987-.5327.4228-1.1714.7373-1.916.9423-.7446.2051-1.5605.3077-2.4482.3077h-1.4546v4.7939h-3.0528v-14.7519ZM184.2002,118.2896v4.999h1.311c.9697,0,1.728-.2119,2.2744-.6348.5464-.4238.8198-1.0654.8198-1.9267,0-.8331-.27-1.4473-.8095-1.8438-.5396-.3955-1.2803-.5937-2.2232-.5937h-1.3725Z"/>
    </g>
  </g>
</svg>
